<?xml version="1.0" standalone="no"?><!DOCTYPE svg PUBLIC "-//W3C//DTD SVG 1.1//EN" "http://www.w3.org/Graphics/SVG/1.1/DTD/svg11.dtd"><svg t="1781420424281" class="icon" viewBox="0 0 1024 1024" version="1.1" xmlns="http://www.w3.org/2000/svg" p-id="20773" xmlns:xlink="http://www.w3.org/1999/xlink" width="200" height="200"><path d="M853.333333 106.666667a85.333333 85.333333 0 0 1 85.333334 85.333333v426.666667a85.333333 85.333333 0 0 1-85.333334 85.333333H170.666667a85.333333 85.333333 0 0 1-85.333334-85.333333V192a85.333333 85.333333 0 0 1 85.333334-85.333333h682.666666z m0 64H170.666667a21.333333 21.333333 0 0 0-20.992 17.493333L149.333333 192v426.666667a21.333333 21.333333 0 0 0 17.493334 20.992L170.666667 640h682.666666a21.333333 21.333333 0 0 0 20.992-17.493333L874.666667 618.666667V192a21.333333 21.333333 0 0 0-17.493334-20.992L853.333333 170.666667z" fill="#3A3F63" p-id="20774"></path><path d="M85.333333 810.666667m32 0l192 0q32 0 32 32l0 0q0 32-32 32l-192 0q-32 0-32-32l0 0q0-32 32-32Z" fill="#3A3F63" p-id="20775"></path><path d="M750.976 257.28a32 32 0 0 1 0 45.269333l-256.426667 256.426667a31.829333 31.829333 0 0 1-15.957333 8.704l-4.437333 0.597333h-4.48a31.872 31.872 0 0 1-20.394667-9.301333L313.514667 423.253333A32 32 0 1 1 358.826667 378.026667L471.936 491.093333l233.813333-233.813333a32 32 0 0 1 45.226667 0z" fill="#06CC76" p-id="20776"></path><path d="M682.666667 810.666667m32 0l192 0q32 0 32 32l0 0q0 32-32 32l-192 0q-32 0-32-32l0 0q0-32 32-32Z" fill="#3A3F63" p-id="20777"></path><path d="M544 661.333333m0 32l0 192q0 32-32 32l0 0q-32 0-32-32l0-192q0-32 32-32l0 0q32 0 32 32Z" fill="#3A3F63" p-id="20778"></path><path d="M384 746.666667m21.333333 0l213.333334 0q21.333333 0 21.333333 21.333333l0 128q0 21.333333-21.333333 21.333333l-213.333334 0q-21.333333 0-21.333333-21.333333l0-128q0-21.333333 21.333333-21.333333Z" fill="#3A3F63" p-id="20779"></path></svg>