<?xml version="1.0" standalone="no"?><!DOCTYPE svg PUBLIC "-//W3C//DTD SVG 1.1//EN" "http://www.w3.org/Graphics/SVG/1.1/DTD/svg11.dtd"><svg t="1781420295431" class="icon" viewBox="0 0 1024 1024" version="1.1" xmlns="http://www.w3.org/2000/svg" p-id="13942" xmlns:xlink="http://www.w3.org/1999/xlink" width="200" height="200"><path d="M263.899 311.125c17.674 0 32 14.327 32 32 0 17.673-14.326 32-32 32-41.918 0-75.899 33.981-75.899 75.899v271.084c0 48.601 39.399 88 88 88h316.611c16.774 0 30.372-13.598 30.372-30.372 0.001-17.673 14.327-32 32-32 17.673 0 32 14.327 32 32 0 52.121-42.251 94.372-94.372 94.372H276c-83.947 0-152-68.052-152-152V451.024c0-77.264 62.635-139.899 139.899-139.899zM651.189 152a31.85 31.85 0 0 1 15.375 3.931c9.316 1.927 18.411 6.367 26.386 13.708l0.84 0.787 90.933 86.909 0.195 0.186 0.193 0.192 89.979 88.962c3.285 3.248 6.052 6.713 8.334 10.327 8.157 5.799 13.478 15.327 13.478 26.098v181.388c0 83.947-68.053 152-152 152H484.414c-83.947 0-152-68.053-152-152V304c0-83.947 68.053-152 152-152h166.775z m-166.775 64c-48.601 0-88 39.399-88 88v260.488c0 48.601 39.399 88 88 88h260.488c48.601 0 88-39.399 88-88V442.497H655.098c-30.928 0-56-25.072-56-56V216H484.414z m178.684 162.497h153.149l-75.937-75.08-77.212-73.796v148.876z" fill="#000000" p-id="13943"></path></svg>