<?xml version="1.0" standalone="no"?><!DOCTYPE svg PUBLIC "-//W3C//DTD SVG 1.1//EN" "http://www.w3.org/Graphics/SVG/1.1/DTD/svg11.dtd"><svg t="1781420440626" class="icon" viewBox="0 0 1024 1024" version="1.1" xmlns="http://www.w3.org/2000/svg" p-id="22135" xmlns:xlink="http://www.w3.org/1999/xlink" width="200" height="200"><path d="M621.447168 121.071616l0 236.3392L7.059456 357.410816l0 94.49472 992.436224 0L621.447168 121.071616 621.447168 121.071616zM385.107968 924.520448l0-236.3392 614.387712 0 0-94.49472L7.059456 593.686528 385.107968 924.520448 385.107968 924.520448zM385.107968 924.520448" fill="#272636" p-id="22136"></path><path d="M836.634624 593.197056c-101.21216 0-183.271424 82.05312-183.271424 183.273472 0 101.218304 82.059264 183.271424 183.271424 183.271424 101.210112 0 183.269376-82.05312 183.269376-183.271424C1019.904 675.252224 937.844736 593.197056 836.634624 593.197056L836.634624 593.197056zM836.634624 647.430144c12.70784 0 22.996992 10.283008 22.996992 22.990848l-8.173568 152.4736-0.147456 0c-0.866304 7.360512-7.069696 13.101056-14.675968 13.101056s-13.811712-5.742592-14.675968-13.101056l-0.03072 0-0.057344-0.866304c0-0.299008-0.06144-0.571392-0.06144-0.874496l0-0.258048-8.17152-150.4768C813.635584 657.713152 823.928832 647.430144 836.634624 647.430144L836.634624 647.430144zM836.634624 905.51296c-12.767232 0-23.089152-10.350592-23.089152-23.109632s10.32192-23.107584 23.089152-23.107584 23.087104 10.348544 23.087104 23.107584S849.401856 905.51296 836.634624 905.51296L836.634624 905.51296zM836.634624 905.51296" fill="#272636" p-id="22137"></path></svg>