<?xml version="1.0" standalone="no"?><!DOCTYPE svg PUBLIC "-//W3C//DTD SVG 1.1//EN" "http://www.w3.org/Graphics/SVG/1.1/DTD/svg11.dtd"><svg t="1781420362560" class="icon" viewBox="0 0 1024 1024" version="1.1" xmlns="http://www.w3.org/2000/svg" p-id="17512" xmlns:xlink="http://www.w3.org/1999/xlink" width="200" height="200"><path d="M717.880889 812.373333c0 28.444444-22.755556 56.888889-56.888889 56.888889h-557.511111c-28.444444 0-56.888889-22.755556-56.888889-56.888889V95.573333c0-28.444444 22.755556-56.888889 56.888889-56.888889h563.2c28.444444 0 56.888889 22.755556 56.888889 56.888889l-5.688889 716.8z" fill="#F6F6F6" p-id="17513"></path><path d="M666.680889 886.328889h-563.2c-39.822222 0-73.955556-34.133333-73.955556-73.955556V95.573333c0-39.822222 34.133333-73.955556 73.955556-73.955555h563.2c39.822222 0 73.955556 34.133333 73.955555 73.955555v716.8c-5.688889 39.822222-34.133333 73.955556-73.955555 73.955556z m-563.2-824.888889c-17.066667 0-34.133333 17.066667-34.133333 34.133333v716.8c0 17.066667 17.066667 34.133333 34.133333 34.133334h563.2c17.066667 0 34.133333-17.066667 34.133333-34.133334V95.573333c0-17.066667-17.066667-34.133333-34.133333-34.133333h-563.2z m102.4 153.6h358.4v39.822222h-358.4v-39.822222z m0 199.111111h358.4v39.822222h-358.4v-39.822222z m0 199.111111h358.4v39.822222h-358.4v-39.822222z" fill="#888888" p-id="17514"></path><path d="M439.125333 732.728889c0 153.6 125.155556 278.755556 278.755556 278.755555s278.755556-125.155556 278.755555-278.755555c0-96.711111-51.2-187.733333-136.533333-238.933333s-193.422222-51.2-278.755555 0-142.222222 142.222222-142.222223 238.933333z" fill="#FF6A6A" p-id="17515"></path><path d="M717.880889 698.595556l-91.022222-91.022223-34.133334 34.133334 91.022223 91.022222-91.022223 91.022222 34.133334 34.133333 91.022222-91.022222 91.022222 91.022222 34.133333-34.133333-91.022222-91.022222 91.022222-91.022222-34.133333-34.133334-91.022222 91.022223z" fill="#FFFFFF" p-id="17516"></path></svg>