<?xml version="1.0" standalone="no"?><!DOCTYPE svg PUBLIC "-//W3C//DTD SVG 1.1//EN" "http://www.w3.org/Graphics/SVG/1.1/DTD/svg11.dtd"><svg t="1781420319728" class="icon" viewBox="0 0 1024 1024" version="1.1" xmlns="http://www.w3.org/2000/svg" p-id="15207" xmlns:xlink="http://www.w3.org/1999/xlink" width="200" height="200"><path d="M0 512C0 229.236364 229.236364 0 512 0s512 229.236364 512 512-229.236364 512-512 512S0 794.763636 0 512z" fill="#FAFAFA" p-id="15208"></path><path d="M977.454545 512c0-257.070545-208.384-465.454545-465.454545-465.454545S46.545455 254.929455 46.545455 512s208.384 465.454545 465.454545 465.454545v46.545455C229.236364 1024 0 794.763636 0 512S229.236364 0 512 0s512 229.236364 512 512-229.236364 512-512 512v-46.545455c257.070545 0 465.454545-208.384 465.454545-465.454545z" fill="#C2E2FF" p-id="15209"></path><path d="M1.861818 566.923636c155.089455-74.007273 369.896727-128.465455 483.560727-28.997818 184.878545 161.792 369.757091 177.431273 535.784728 9.448727-18.618182 265.774545-239.988364 475.554909-510.510546 475.55491-263.912727 0-481.000727-199.586909-508.881454-456.005819z" fill="#C2E2FF" p-id="15210"></path></svg>