<?xml version="1.0" standalone="no"?><!DOCTYPE svg PUBLIC "-//W3C//DTD SVG 1.1//EN" "http://www.w3.org/Graphics/SVG/1.1/DTD/svg11.dtd"><svg t="1781420464187" class="icon" viewBox="0 0 1024 1024" version="1.1" xmlns="http://www.w3.org/2000/svg" p-id="24092" xmlns:xlink="http://www.w3.org/1999/xlink" width="200" height="200"><path d="M872.777143 77.787429H151.222857c-56.064 0-101.668571 46.445714-101.668571 103.533714v513.572571c0 57.124571 45.604571 103.533714 101.668571 103.533715H475.428571v74.642285H305.627429a36.571429 36.571429 0 1 0 0 73.142857h412.745142a36.571429 36.571429 0 1 0 0-73.142857H548.571429v-74.642285h324.205714c56.064 0 101.668571-46.445714 101.668571-103.533715V181.321143c0-57.088-45.641143-103.533714-101.668571-103.533714z m28.525714 617.106285c0 16.749714-12.8 30.390857-28.525714 30.390857H151.222857c-15.725714 0-28.525714-13.641143-28.525714-30.390857V181.321143c0-16.749714 12.8-30.390857 28.525714-30.390857h721.517714c15.725714 0 28.525714 13.641143 28.525715 30.390857v513.572571z" fill="#333333" p-id="24093"></path><path d="M793.673143 210.578286a37.156571 37.156571 0 0 0-26.075429-10.898286l-145.517714 0.036571A37.083429 37.083429 0 0 0 585.142857 236.653714v36.205715l-146.285714 0.036571v-36.205714a37.156571 37.156571 0 0 0-36.937143-36.937143H256.365714A37.083429 37.083429 0 0 0 219.428571 236.726857v145.554286a37.156571 37.156571 0 0 0 36.937143 36.937143h145.554286A37.083429 37.083429 0 0 0 438.857143 382.208v-36.169143h36.571428v111.067429h-42.459428a37.083429 37.083429 0 0 0-36.937143 36.937143v145.554285c0 20.224 16.749714 36.937143 36.937143 36.937143h145.554286a37.156571 37.156571 0 0 0 36.937142-36.973714v-145.517714a37.083429 37.083429 0 0 0-36.937142-36.937143H548.571429V346.075429h36.571428v36.205714a37.083429 37.083429 0 0 0 36.937143 36.937143l145.554286-0.036572A37.156571 37.156571 0 0 0 804.571429 382.171429V236.617143c0-9.691429-4.059429-19.2-10.898286-26.038857zM292.571429 346.038857v-73.142857h73.142857l0.036571 73.142857H292.571429z m176.676571 257.316572v-73.142858l73.142857-0.036571v73.142857h-73.142857zM658.285714 346.002286l-0.036571-73.142857 73.142857-0.036572 0.036571 73.142857-73.142857 0.036572z" fill="#333333" p-id="24094"></path></svg>