<?xml version="1.0" standalone="no"?><!DOCTYPE svg PUBLIC "-//W3C//DTD SVG 1.1//EN" "http://www.w3.org/Graphics/SVG/1.1/DTD/svg11.dtd"><svg t="1781420477196" class="icon" viewBox="0 0 1024 1024" version="1.1" xmlns="http://www.w3.org/2000/svg" p-id="25140" xmlns:xlink="http://www.w3.org/1999/xlink" width="200" height="200"><path d="M506.848 774.048c-40.224-14.112-81.696-106.304-84.864-238.112h95.68a16 16 0 0 0 0-32h-95.68c1.024-41.92 5.856-80 13.44-112.8 26.752 0.448 53.984 0.768 82.112 0.768 28.224 0 55.552-0.32 82.368-0.768 6.304 27.328 10.848 58.528 12.768 93.088a15.68 15.68 0 0 0 16.864 15.072 16 16 0 0 0 15.072-16.864 601.728 601.728 0 0 0-11.968-91.904c35.904-0.864 70.208-2.208 102.976-3.936a255.68 255.68 0 0 1 37.024 154.656 16 16 0 0 0 31.904 2.592 288.192 288.192 0 0 0-46.496-182.528 287.648 287.648 0 0 0-240.544-129.408c-24.16 0-47.936 3.008-70.784 8.832a289.216 289.216 0 0 0-169.728 120.544v0.032l-0.032 0.064a288.16 288.16 0 0 0-47.424 158.56c0 56.896 16.544 111.84 47.808 158.944 50.656 76.096 131.648 122.944 222.272 128.512l0.992 0.032a15.808 15.808 0 0 0 15.104-11.68c0.224-0.48 0.768-0.704 0.928-1.248a16 16 0 0 0-9.792-20.448z m-116.832-270.112H262.72a255.36 255.36 0 0 1 36.736-117.376c32.832 1.728 67.168 3.072 103.104 3.936a612.16 612.16 0 0 0-12.544 113.44z m-67.744-149.504c1.984-2.336 4.192-4.416 6.24-6.656 4.736-5.184 9.536-10.304 14.624-15.04 2.784-2.592 5.728-4.928 8.576-7.36 4.736-4.032 9.504-7.968 14.496-11.648 3.232-2.368 6.56-4.544 9.856-6.752a255.392 255.392 0 0 1 25.92-15.168c5.28-2.688 10.688-5.152 16.128-7.456 3.712-1.568 7.392-3.136 11.168-4.512 5.728-2.112 11.552-3.904 17.44-5.568l3.168-0.896c-15.904 21.504-29.376 50.432-39.488 85.312a3872.32 3872.32 0 0 1-89.056-3.008l0.928-1.248z m195.296 5.44c-25.088 0-49.408-0.256-73.376-0.608 18.944-59.52 47.072-95.328 73.504-95.328 25.504 0 54.208 34.72 73.536 95.328-24.064 0.384-48.512 0.608-73.664 0.608z m68.16-86.432l2.944 0.832c5.856 1.696 11.648 3.456 17.344 5.536 3.808 1.408 7.552 2.976 11.296 4.576a247.968 247.968 0 0 1 41.76 22.432c3.424 2.272 6.848 4.544 10.144 6.976 4.832 3.552 9.472 7.424 14.08 11.328 3.008 2.56 6.048 4.992 8.928 7.68 4.864 4.544 9.44 9.44 13.952 14.4 2.24 2.464 4.672 4.768 6.816 7.328 0.32 0.352 0.576 0.8 0.864 1.152-28.48 1.312-58.272 2.304-88.992 3.008-10.048-34.912-23.392-63.84-39.136-85.248zM299.744 653.536a253.44 253.44 0 0 1-37.024-117.6h127.264c0.96 40.64 5.504 79.072 13.024 113.568-35.232 0.928-69.824 2.24-103.264 4.032z m21.664 30.848c29.152-1.376 59.328-2.336 89.76-3.072 10.272 34.816 23.808 64.192 39.808 85.824a253.344 253.344 0 0 1-129.568-82.752z" p-id="25141"></path><path d="M803.424 659.168l-72-124.704a15.968 15.968 0 0 0-13.856-8h-144a15.968 15.968 0 0 0-13.856 8l-72 124.704a16.064 16.064 0 0 0 0 16l72 124.704c2.848 4.96 8.128 8 13.856 8h144a15.968 15.968 0 0 0 13.856-8l72-124.704a16.064 16.064 0 0 0 0-16z m-95.104 116.704h-125.536l-62.752-108.704 62.752-108.704h125.536l62.752 108.704-62.752 108.704z" p-id="25142"></path><path d="M645.568 587.168c-44.096 0-80 35.904-80 80s35.904 80 80 80 80-35.904 80-80-35.904-80-80-80z m0 128c-26.464 0-48-21.536-48-48s21.536-48 48-48 48 21.536 48 48-21.536 48-48 48z" p-id="25143"></path></svg>