<?xml version="1.0" standalone="no"?><!DOCTYPE svg PUBLIC "-//W3C//DTD SVG 1.1//EN" "http://www.w3.org/Graphics/SVG/1.1/DTD/svg11.dtd"><svg t="1781420285251" class="icon" viewBox="0 0 1024 1024" version="1.1" xmlns="http://www.w3.org/2000/svg" p-id="12881" xmlns:xlink="http://www.w3.org/1999/xlink" width="200" height="200"><path d="M504.832 102.692571a402.285714 402.285714 0 0 1 355.108571 205.897143 30.793143 30.793143 0 0 1 3.730286 14.628572v1.170285a32.621714 32.621714 0 0 1-32.621714 31.524572H657.188571a32.402286 32.402286 0 0 1-32.329142-32.475429 32.329143 32.329143 0 0 1 32.329142-32.329143h114.541715a346.404571 346.404571 0 0 0-266.898286-123.611428 344.722286 344.722286 0 0 0-344.283429 344.356571 32.475429 32.475429 0 0 1-32.475428 32.475429 32.475429 32.475429 0 0 1-32.475429-32.475429 409.6 409.6 0 0 1 409.234286-409.161143zM160.402286 700.562286v-1.097143a32.548571 32.548571 0 0 1 32.475428-31.451429h173.860572a32.402286 32.402286 0 0 1 32.329143 32.475429 32.402286 32.402286 0 0 1-32.329143 32.329143H252.196571a347.136 347.136 0 0 0 266.898286 123.465143A344.722286 344.722286 0 0 0 863.524571 512a32.402286 32.402286 0 0 1 32.475429-32.621714 32.475429 32.475429 0 0 1 32.475429 32.621714 409.6 409.6 0 0 1-409.6 409.234286 402.724571 402.724571 0 0 1-355.108572-205.750857 32.182857 32.182857 0 0 1-3.584-14.628572z" p-id="12882"></path></svg>