<?xml version="1.0" standalone="no"?><!DOCTYPE svg PUBLIC "-//W3C//DTD SVG 1.1//EN" "http://www.w3.org/Graphics/SVG/1.1/DTD/svg11.dtd"><svg t="1781420271063" class="icon" viewBox="0 0 1024 1024" version="1.1" xmlns="http://www.w3.org/2000/svg" p-id="11913" xmlns:xlink="http://www.w3.org/1999/xlink" width="200" height="200"><path d="M640 128a256 256 0 0 1 256 256v256a256 256 0 0 1-256 256H384a256 256 0 0 1-256-256V384a256 256 0 0 1 256-256h256z m0 85.333333H384a170.666667 170.666667 0 0 0-170.666667 170.666667v256a170.666667 170.666667 0 0 0 170.666667 170.666667h256a170.666667 170.666667 0 0 0 170.666667-170.666667V384a170.666667 170.666667 0 0 0-170.666667-170.666667z" fill="#101224" p-id="11914"></path></svg>